<mxfile host="app.diagrams.net" agent="Mozilla/5.0 (Windows NT 10.0; Win64; x64) AppleWebKit/537.36 (KHTML, like Gecko) Chrome/131.0.0.0 Safari/537.36 Edg/131.0.0.0" version="24.9.0">
  <diagram name="Page-1" id="O-hLnlffTWuhspOV2lfg">
    <mxGraphModel dx="1718" dy="471" grid="1" gridSize="10" guides="1" tooltips="1" connect="1" arrows="1" fold="1" page="1" pageScale="1" pageWidth="850" pageHeight="1100" math="0" shadow="0">
      <root>
        <mxCell id="0" />
        <mxCell id="1" parent="0" />
        <mxCell id="94k2XUUEdDW2tIsNb6vk-1" value="" style="edgeStyle=orthogonalEdgeStyle;rounded=0;orthogonalLoop=1;jettySize=auto;html=1;" edge="1" parent="1" source="94k2XUUEdDW2tIsNb6vk-2" target="94k2XUUEdDW2tIsNb6vk-4">
          <mxGeometry relative="1" as="geometry" />
        </mxCell>
        <mxCell id="94k2XUUEdDW2tIsNb6vk-2" value="&lt;font data-font-src=&quot;https://fonts.googleapis.com/css?family=Sarabun&quot; face=&quot;Sarabun&quot;&gt;Start&lt;/font&gt;" style="ellipse;whiteSpace=wrap;html=1;" vertex="1" parent="1">
          <mxGeometry x="-630.0000000000001" y="60" width="130" height="30" as="geometry" />
        </mxCell>
        <mxCell id="94k2XUUEdDW2tIsNb6vk-3" value="" style="edgeStyle=orthogonalEdgeStyle;rounded=0;orthogonalLoop=1;jettySize=auto;html=1;" edge="1" parent="1" source="94k2XUUEdDW2tIsNb6vk-4" target="94k2XUUEdDW2tIsNb6vk-5">
          <mxGeometry relative="1" as="geometry" />
        </mxCell>
        <mxCell id="94k2XUUEdDW2tIsNb6vk-4" value="กำหนดตัวแปร input" style="rounded=0;whiteSpace=wrap;html=1;" vertex="1" parent="1">
          <mxGeometry x="-630.0000000000001" y="130" width="130" height="40" as="geometry" />
        </mxCell>
        <mxCell id="94k2XUUEdDW2tIsNb6vk-7" value="" style="edgeStyle=orthogonalEdgeStyle;rounded=0;orthogonalLoop=1;jettySize=auto;html=1;" edge="1" parent="1" source="94k2XUUEdDW2tIsNb6vk-5" target="94k2XUUEdDW2tIsNb6vk-6">
          <mxGeometry relative="1" as="geometry" />
        </mxCell>
        <mxCell id="94k2XUUEdDW2tIsNb6vk-5" value="กรอกค่า input" style="shape=parallelogram;perimeter=parallelogramPerimeter;whiteSpace=wrap;html=1;fixedSize=1;" vertex="1" parent="1">
          <mxGeometry x="-630.0000000000001" y="200" width="130" height="40" as="geometry" />
        </mxCell>
        <mxCell id="94k2XUUEdDW2tIsNb6vk-11" value="" style="edgeStyle=orthogonalEdgeStyle;rounded=0;orthogonalLoop=1;jettySize=auto;html=1;" edge="1" parent="1" source="94k2XUUEdDW2tIsNb6vk-6" target="94k2XUUEdDW2tIsNb6vk-10">
          <mxGeometry relative="1" as="geometry" />
        </mxCell>
        <mxCell id="94k2XUUEdDW2tIsNb6vk-18" value="" style="edgeStyle=orthogonalEdgeStyle;rounded=0;orthogonalLoop=1;jettySize=auto;html=1;" edge="1" parent="1" source="94k2XUUEdDW2tIsNb6vk-6" target="94k2XUUEdDW2tIsNb6vk-13">
          <mxGeometry relative="1" as="geometry" />
        </mxCell>
        <mxCell id="94k2XUUEdDW2tIsNb6vk-6" value="input1&lt;div&gt;หาร 4 ลงตัวหรือไม่&lt;/div&gt;" style="rhombus;whiteSpace=wrap;html=1;" vertex="1" parent="1">
          <mxGeometry x="-631.67" y="280" width="133.33" height="100" as="geometry" />
        </mxCell>
        <mxCell id="94k2XUUEdDW2tIsNb6vk-8" value="T" style="text;html=1;align=center;verticalAlign=middle;resizable=0;points=[];autosize=1;strokeColor=none;fillColor=none;" vertex="1" parent="1">
          <mxGeometry x="-550" y="360" width="30" height="30" as="geometry" />
        </mxCell>
        <mxCell id="94k2XUUEdDW2tIsNb6vk-30" style="edgeStyle=orthogonalEdgeStyle;rounded=0;orthogonalLoop=1;jettySize=auto;html=1;entryX=0.5;entryY=0;entryDx=0;entryDy=0;" edge="1" parent="1" source="94k2XUUEdDW2tIsNb6vk-10" target="94k2XUUEdDW2tIsNb6vk-28">
          <mxGeometry relative="1" as="geometry" />
        </mxCell>
        <mxCell id="94k2XUUEdDW2tIsNb6vk-10" value="พิม&amp;nbsp;February has 28 days" style="shape=parallelogram;perimeter=parallelogramPerimeter;whiteSpace=wrap;html=1;fixedSize=1;" vertex="1" parent="1">
          <mxGeometry x="-425" y="310" width="175" height="40" as="geometry" />
        </mxCell>
        <mxCell id="94k2XUUEdDW2tIsNb6vk-12" value="F" style="text;html=1;align=center;verticalAlign=middle;resizable=0;points=[];autosize=1;strokeColor=none;fillColor=none;" vertex="1" parent="1">
          <mxGeometry x="-500" y="290" width="30" height="30" as="geometry" />
        </mxCell>
        <mxCell id="94k2XUUEdDW2tIsNb6vk-17" value="" style="edgeStyle=orthogonalEdgeStyle;rounded=0;orthogonalLoop=1;jettySize=auto;html=1;" edge="1" parent="1" source="94k2XUUEdDW2tIsNb6vk-13" target="94k2XUUEdDW2tIsNb6vk-16">
          <mxGeometry relative="1" as="geometry" />
        </mxCell>
        <mxCell id="94k2XUUEdDW2tIsNb6vk-20" value="" style="edgeStyle=orthogonalEdgeStyle;rounded=0;orthogonalLoop=1;jettySize=auto;html=1;" edge="1" parent="1" source="94k2XUUEdDW2tIsNb6vk-13" target="94k2XUUEdDW2tIsNb6vk-19">
          <mxGeometry relative="1" as="geometry" />
        </mxCell>
        <mxCell id="94k2XUUEdDW2tIsNb6vk-13" value="input1&lt;div&gt;หาร 100 ลงตัวหรือไม่&lt;/div&gt;" style="rhombus;whiteSpace=wrap;html=1;" vertex="1" parent="1">
          <mxGeometry x="-631.67" y="430" width="133.33" height="100" as="geometry" />
        </mxCell>
        <mxCell id="94k2XUUEdDW2tIsNb6vk-15" value="F" style="text;html=1;align=center;verticalAlign=middle;resizable=0;points=[];autosize=1;strokeColor=none;fillColor=none;" vertex="1" parent="1">
          <mxGeometry x="-510" y="450" width="30" height="30" as="geometry" />
        </mxCell>
        <mxCell id="94k2XUUEdDW2tIsNb6vk-32" value="" style="edgeStyle=orthogonalEdgeStyle;rounded=0;orthogonalLoop=1;jettySize=auto;html=1;" edge="1" parent="1" source="94k2XUUEdDW2tIsNb6vk-16" target="94k2XUUEdDW2tIsNb6vk-28">
          <mxGeometry relative="1" as="geometry" />
        </mxCell>
        <mxCell id="94k2XUUEdDW2tIsNb6vk-16" value="พิม&amp;nbsp;February has 29 days" style="shape=parallelogram;perimeter=parallelogramPerimeter;whiteSpace=wrap;html=1;fixedSize=1;" vertex="1" parent="1">
          <mxGeometry x="-425" y="460" width="165" height="40" as="geometry" />
        </mxCell>
        <mxCell id="94k2XUUEdDW2tIsNb6vk-22" value="" style="edgeStyle=orthogonalEdgeStyle;rounded=0;orthogonalLoop=1;jettySize=auto;html=1;" edge="1" parent="1" source="94k2XUUEdDW2tIsNb6vk-19" target="94k2XUUEdDW2tIsNb6vk-21">
          <mxGeometry relative="1" as="geometry" />
        </mxCell>
        <mxCell id="94k2XUUEdDW2tIsNb6vk-25" value="" style="edgeStyle=orthogonalEdgeStyle;rounded=0;orthogonalLoop=1;jettySize=auto;html=1;" edge="1" parent="1" source="94k2XUUEdDW2tIsNb6vk-19" target="94k2XUUEdDW2tIsNb6vk-24">
          <mxGeometry relative="1" as="geometry" />
        </mxCell>
        <mxCell id="94k2XUUEdDW2tIsNb6vk-19" value="input1&lt;div&gt;หาร 400 ลงตัวหรือไม่&lt;/div&gt;" style="rhombus;whiteSpace=wrap;html=1;" vertex="1" parent="1">
          <mxGeometry x="-631" y="610" width="133.33" height="100" as="geometry" />
        </mxCell>
        <mxCell id="94k2XUUEdDW2tIsNb6vk-21" value="พิม&amp;nbsp;February has 28 days" style="shape=parallelogram;perimeter=parallelogramPerimeter;whiteSpace=wrap;html=1;fixedSize=1;" vertex="1" parent="1">
          <mxGeometry x="-425" y="640" width="165" height="40" as="geometry" />
        </mxCell>
        <mxCell id="94k2XUUEdDW2tIsNb6vk-23" value="F" style="text;html=1;align=center;verticalAlign=middle;resizable=0;points=[];autosize=1;strokeColor=none;fillColor=none;" vertex="1" parent="1">
          <mxGeometry x="-510" y="620" width="30" height="30" as="geometry" />
        </mxCell>
        <mxCell id="94k2XUUEdDW2tIsNb6vk-34" value="" style="edgeStyle=orthogonalEdgeStyle;rounded=0;orthogonalLoop=1;jettySize=auto;html=1;" edge="1" parent="1" source="94k2XUUEdDW2tIsNb6vk-24" target="94k2XUUEdDW2tIsNb6vk-33">
          <mxGeometry relative="1" as="geometry" />
        </mxCell>
        <mxCell id="94k2XUUEdDW2tIsNb6vk-24" value="พิม&amp;nbsp;February has 29 days" style="shape=parallelogram;perimeter=parallelogramPerimeter;whiteSpace=wrap;html=1;fixedSize=1;" vertex="1" parent="1">
          <mxGeometry x="-644.66" y="810" width="160.66" height="40" as="geometry" />
        </mxCell>
        <mxCell id="94k2XUUEdDW2tIsNb6vk-26" value="T" style="text;html=1;align=center;verticalAlign=middle;resizable=0;points=[];autosize=1;strokeColor=none;fillColor=none;" vertex="1" parent="1">
          <mxGeometry x="-550" y="510" width="30" height="30" as="geometry" />
        </mxCell>
        <mxCell id="94k2XUUEdDW2tIsNb6vk-27" value="T" style="text;html=1;align=center;verticalAlign=middle;resizable=0;points=[];autosize=1;strokeColor=none;fillColor=none;" vertex="1" parent="1">
          <mxGeometry x="-550" y="700" width="30" height="30" as="geometry" />
        </mxCell>
        <mxCell id="94k2XUUEdDW2tIsNb6vk-31" style="edgeStyle=orthogonalEdgeStyle;rounded=0;orthogonalLoop=1;jettySize=auto;html=1;entryX=0.5;entryY=0;entryDx=0;entryDy=0;" edge="1" parent="1" source="94k2XUUEdDW2tIsNb6vk-28" target="94k2XUUEdDW2tIsNb6vk-29">
          <mxGeometry relative="1" as="geometry" />
        </mxCell>
        <mxCell id="94k2XUUEdDW2tIsNb6vk-28" value="" style="ellipse;whiteSpace=wrap;html=1;aspect=fixed;" vertex="1" parent="1">
          <mxGeometry x="-190" y="467.5" width="25" height="25" as="geometry" />
        </mxCell>
        <mxCell id="94k2XUUEdDW2tIsNb6vk-35" style="edgeStyle=orthogonalEdgeStyle;rounded=0;orthogonalLoop=1;jettySize=auto;html=1;entryX=1;entryY=0.5;entryDx=0;entryDy=0;" edge="1" parent="1" source="94k2XUUEdDW2tIsNb6vk-29" target="94k2XUUEdDW2tIsNb6vk-33">
          <mxGeometry relative="1" as="geometry">
            <Array as="points">
              <mxPoint x="-177" y="943" />
            </Array>
          </mxGeometry>
        </mxCell>
        <mxCell id="94k2XUUEdDW2tIsNb6vk-29" value="" style="ellipse;whiteSpace=wrap;html=1;aspect=fixed;" vertex="1" parent="1">
          <mxGeometry x="-190" y="640" width="25" height="25" as="geometry" />
        </mxCell>
        <mxCell id="94k2XUUEdDW2tIsNb6vk-37" value="" style="edgeStyle=orthogonalEdgeStyle;rounded=0;orthogonalLoop=1;jettySize=auto;html=1;" edge="1" parent="1" source="94k2XUUEdDW2tIsNb6vk-33" target="94k2XUUEdDW2tIsNb6vk-36">
          <mxGeometry relative="1" as="geometry" />
        </mxCell>
        <mxCell id="94k2XUUEdDW2tIsNb6vk-33" value="" style="ellipse;whiteSpace=wrap;html=1;aspect=fixed;" vertex="1" parent="1">
          <mxGeometry x="-577.51" y="930" width="25" height="25" as="geometry" />
        </mxCell>
        <mxCell id="94k2XUUEdDW2tIsNb6vk-36" value="&lt;font data-font-src=&quot;https://fonts.googleapis.com/css?family=Sarabun&quot; face=&quot;Sarabun&quot;&gt;End&lt;/font&gt;" style="ellipse;whiteSpace=wrap;html=1;" vertex="1" parent="1">
          <mxGeometry x="-629.3300000000002" y="1010" width="130" height="30" as="geometry" />
        </mxCell>
      </root>
    </mxGraphModel>
  </diagram>
</mxfile>
